HIERARCHY
ROOT Hips
{
	OFFSET -14.64140 90.27770 -84.91600
	CHANNELS 6 Xposition Yposition Zposition Zrotation Xrotation Yrotation
	JOINT Spine
	{
		OFFSET 0.00000 13.20850 -1.60436
		CHANNELS 3 Zrotation Xrotation Yrotation
		JOINT Spine1
		{
			OFFSET 0.00000 8.61716 0.00000
			CHANNELS 3 Zrotation Xrotation Yrotation
			JOINT Spine2
			{
				OFFSET 0.00000 8.61717 0.00000
				CHANNELS 3 Zrotation Xrotation Yrotation
				JOINT Spine3
				{
					OFFSET 0.00000 8.61717 0.00000
					CHANNELS 3 Zrotation Xrotation Yrotation
					JOINT Neck
					{
						OFFSET 0.00000 11.07920 1.10792
						CHANNELS 3 Zrotation Xrotation Yrotation
						JOINT Neck1
						{
							OFFSET 0.00000 7.08032 0.00000
							CHANNELS 3 Zrotation Xrotation Yrotation
							JOINT Head
							{
								OFFSET 0.00000 7.08031 0.00000
								CHANNELS 3 Zrotation Xrotation Yrotation
								End site
								{
									OFFSET 0.00000 0.00000 0.00000
								}
							}
						}
					}
					JOINT RightShoulder
					{
						OFFSET -0.01000 7.91373 5.19711
						CHANNELS 3 Zrotation Xrotation Yrotation
						JOINT RightArm
						{
							OFFSET -18.41580 0.00000 0.00000
							CHANNELS 3 Zrotation Xrotation Yrotation
							JOINT RightForeArm
							{
								OFFSET -29.11090 0.00000 0.00000
								CHANNELS 3 Zrotation Xrotation Yrotation
								JOINT RightHand
								{
									OFFSET -24.65040 0.00000 0.00000
									CHANNELS 3 Zrotation Xrotation Yrotation
									JOINT RightHandThumb1
									{
										OFFSET -5.35114 -0.85590 3.97906
										CHANNELS 3 Zrotation Xrotation Yrotation
										JOINT RightHandThumb2
										{
											OFFSET -4.52789 0.00000 0.00000
											CHANNELS 3 Zrotation Xrotation Yrotation
											JOINT RightHandThumb3
											{
												OFFSET -2.46976 0.00000 0.00000
												CHANNELS 3 Zrotation Xrotation Yrotation
												End site
												{
													OFFSET 0.00000 0.00000 0.00000
												}
											}
										}
									}
									JOINT RightHandIndex1
									{
										OFFSET -14.26970 0.00000 2.88139
										CHANNELS 3 Zrotation Xrotation Yrotation
										JOINT RightHandIndex2
										{
											OFFSET -5.48836 0.00000 0.00000
											CHANNELS 3 Zrotation Xrotation Yrotation
											JOINT RightHandIndex3
											{
												OFFSET -3.01859 0.00000 0.00000
												CHANNELS 3 Zrotation Xrotation Yrotation
												End site
												{
													OFFSET 0.00000 0.00000 0.00000
												}
											}
										}
									}
									JOINT RightHandMiddle1
									{
										OFFSET -14.26970 0.00000 -0.09147
										CHANNELS 3 Zrotation Xrotation Yrotation
										JOINT RightHandMiddle2
										{
											OFFSET -6.17441 0.00000 0.00000
											CHANNELS 3 Zrotation Xrotation Yrotation
											JOINT RightHandMiddle3
											{
												OFFSET -3.56743 0.00000 0.00000
												CHANNELS 3 Zrotation Xrotation Yrotation
												End site
												{
													OFFSET 0.00000 0.00000 0.00000
												}
											}
										}
									}
									JOINT RightHandRing1
									{
										OFFSET -12.69180 0.00000 -3.06433
										CHANNELS 3 Zrotation Xrotation Yrotation
										JOINT RightHandRing2
										{
											OFFSET -5.62556 0.00000 0.00000
											CHANNELS 3 Zrotation Xrotation Yrotation
											JOINT RightHandRing3
											{
												OFFSET -3.56744 0.00000 0.00000
												CHANNELS 3 Zrotation Xrotation Yrotation
												End site
												{
													OFFSET 0.00000 0.00000 0.00000
												}
											}
										}
									}
									JOINT RightHandPinky1
									{
										OFFSET -11.11390 0.00000 -6.03719
										CHANNELS 3 Zrotation Xrotation Yrotation
										JOINT RightHandPinky2
										{
											OFFSET -4.52789 0.00000 0.00000
											CHANNELS 3 Zrotation Xrotation Yrotation
											JOINT RightHandPinky3
											{
												OFFSET -2.46976 0.00000 0.00000
												CHANNELS 3 Zrotation Xrotation Yrotation
												End site
												{
													OFFSET 0.00000 0.00000 0.00000
												}
											}
										}
									}
								}
							}
						}
					}
					JOINT LeftShoulder
					{
						OFFSET 0.01000 7.91373 5.19711
						CHANNELS 3 Zrotation Xrotation Yrotation
						JOINT LeftArm
						{
							OFFSET 18.41580 0.00000 0.00000
							CHANNELS 3 Zrotation Xrotation Yrotation
							JOINT LeftForeArm
							{
								OFFSET 29.11090 0.00000 0.00000
								CHANNELS 3 Zrotation Xrotation Yrotation
								JOINT LeftHand
								{
									OFFSET 24.65040 0.00000 0.00000
									CHANNELS 3 Zrotation Xrotation Yrotation
									JOINT LeftHandThumb1
									{
										OFFSET 5.35114 -0.85590 3.97906
										CHANNELS 3 Zrotation Xrotation Yrotation
										JOINT LeftHandThumb2
										{
											OFFSET 4.52789 0.00000 0.00000
											CHANNELS 3 Zrotation Xrotation Yrotation
											JOINT LeftHandThumb3
											{
												OFFSET 2.46977 0.00000 0.00000
												CHANNELS 3 Zrotation Xrotation Yrotation
												End site
												{
													OFFSET 0.00000 0.00000 0.00000
												}
											}
										}
									}
									JOINT LeftHandIndex1
									{
										OFFSET 14.26970 0.00000 2.88139
										CHANNELS 3 Zrotation Xrotation Yrotation
										JOINT LeftHandIndex2
										{
											OFFSET 5.48836 0.00000 0.00000
											CHANNELS 3 Zrotation Xrotation Yrotation
											JOINT LeftHandIndex3
											{
												OFFSET 3.01859 0.00000 0.00000
												CHANNELS 3 Zrotation Xrotation Yrotation
												End site
												{
													OFFSET 0.00000 0.00000 0.00000
												}
											}
										}
									}
									JOINT LeftHandMiddle1
									{
										OFFSET 14.26970 0.00000 -0.09147
										CHANNELS 3 Zrotation Xrotation Yrotation
										JOINT LeftHandMiddle2
										{
											OFFSET 6.17440 0.00000 0.00000
											CHANNELS 3 Zrotation Xrotation Yrotation
											JOINT LeftHandMiddle3
											{
												OFFSET 3.56744 0.00000 0.00000
												CHANNELS 3 Zrotation Xrotation Yrotation
												End site
												{
													OFFSET 0.00000 0.00000 0.00000
												}
											}
										}
									}
									JOINT LeftHandRing1
									{
										OFFSET 12.69180 0.00000 -3.06433
										CHANNELS 3 Zrotation Xrotation Yrotation
										JOINT LeftHandRing2
										{
											OFFSET 5.62556 0.00000 0.00000
											CHANNELS 3 Zrotation Xrotation Yrotation
											JOINT LeftHandRing3
											{
												OFFSET 3.56744 0.00000 0.00000
												CHANNELS 3 Zrotation Xrotation Yrotation
												End site
												{
													OFFSET 0.00000 0.00000 0.00000
												}
											}
										}
									}
									JOINT LeftHandPinky1
									{
										OFFSET 11.11390 0.00000 -6.03719
										CHANNELS 3 Zrotation Xrotation Yrotation
										JOINT LeftHandPinky2
										{
											OFFSET 4.52789 0.00000 0.00000
											CHANNELS 3 Zrotation Xrotation Yrotation
											JOINT LeftHandPinky3
											{
												OFFSET 2.46976 0.00000 0.00000
												CHANNELS 3 Zrotation Xrotation Yrotation
												End site
												{
													OFFSET 0.00000 0.00000 0.00000
												}
											}
										}
									}
								}
							}
						}
					}
					JOINT pCube4
					{
						OFFSET 0.00000 10.91090 1.10792
						CHANNELS 3 Zrotation Xrotation Yrotation
						End site
						{
							OFFSET 0.00000 0.00000 0.00000
						}
					}
				}
			}
		}
	}
	JOINT RightUpLeg
	{
		OFFSET -9.98441 0.00000 0.00000
		CHANNELS 3 Zrotation Xrotation Yrotation
		JOINT RightLeg
		{
			OFFSET 0.00000 -42.11790 0.00000
			CHANNELS 3 Zrotation Xrotation Yrotation
			JOINT RightFoot
			{
				OFFSET 0.00000 -45.00020 -0.00001
				CHANNELS 3 Zrotation Xrotation Yrotation
				JOINT RightForeFoot
				{
					OFFSET 0.00000 -3.74820 0.00000
					CHANNELS 3 Zrotation Xrotation Yrotation
					JOINT RightToeBase
					{
						OFFSET 0.00000 0.06325 14.43120
						CHANNELS 3 Zrotation Xrotation Yrotation
						End site
						{
							OFFSET 0.00000 0.00000 0.00000
						}
					}
				}
			}
		}
	}
	JOINT LeftUpLeg
	{
		OFFSET 9.98441 0.00000 0.00000
		CHANNELS 3 Zrotation Xrotation Yrotation
		JOINT LeftLeg
		{
			OFFSET 0.00000 -42.11800 0.00000
			CHANNELS 3 Zrotation Xrotation Yrotation
			JOINT LeftFoot
			{
				OFFSET 0.00000 -45.00070 0.00000
				CHANNELS 3 Zrotation Xrotation Yrotation
				JOINT LeftForeFoot
				{
					OFFSET 0.00000 -3.74824 0.00000
					CHANNELS 3 Zrotation Xrotation Yrotation
					JOINT LeftToeBase
					{
						OFFSET 0.00000 0.06325 14.43110
						CHANNELS 3 Zrotation Xrotation Yrotation
						End site
						{
							OFFSET 0.00000 0.00000 0.00000
						}
					}
				}
			}
		}
	}
}
MOTION
Frames: 4
Frame Time: 0.050000
0.007546270327814155 0.034121156268998774 0.034959506334070196 0.021545481525911694 -0.010543828227028486 0.00898170630395283 -3.1286430887558643 0.9561421906118156 -0.7863048784645592 -0.7890194203290438 3.5163034941111238 0.3558977258794542 -0.8060677438476274 -1.9571469440579063 -2.181704083574514 -0.9681532770752941 -0.06274575950447174 -0.9304659206293795 -1.9676670215061405 11.558043120455498 4.8341270304246144 -0.18758637911093967 -0.44050537160591313 10.240426825999318 -1.6219575267147808 -15.324041887941922 0.8698305633304046 -1.8671168733943582 1.2282377565668074 -12.624923630766974 69.17653663808366 14.310800206394594 4.482998157739443 51.591179435636796 9.973227850497043 91.66947251890527 21.483195680183233 -0.15176541801517116 -4.271520866201758 4.486692022841007 -0.09453441161862401 -1.6375320981763413 0.030890145836108822 0.01665547778779068 -56.27510660501568 0.026341871112236716 -0.015616560730537118 -56.24922006880789 -38.7428713759315 0.029620636277428232 -0.02846230616744172 0.0073764673025471785 0.032630505233221724 0.026289607309989048 0.04549955458173306 0.009412372167557938 -0.019338066852889184 -36.65081488445313 -0.025962330482752496 0.03860022704187484 0.019851464710355017 -0.029173030101842145 0.021799461146661675 0.012065418020262187 -0.013638662564025138 0.007070708696950179 -19.79503973182325 0.01420247649244118 0.011411874947388986 -0.01766683427491937 -0.043270303214157556 -0.04839416907009016 -0.02882956266429786 0.008172624097749482 -0.013448973165660032 24.043791473941162 0.029509224913919423 -0.009870837286918573 28.902343548553887 0.018671558229251338 0.01998037619060275 28.863577602349505 -0.04015257356197362 -0.015386532408876165 8.340982720856754 1.978573040553896 11.656682148281146 -67.03845534417249 12.277502030876045 -20.50573332842971 -70.97543918373273 7.00907146680984 -101.99287056686431 -21.630101677531787 1.0620782848090788 -2.2752098106741294 -0.5117852345756516 0.04271933946479756 -8.10205170221194 -0.006631091660375625 0.01227378107780052 44.57366603743942 -0.04590535843276676 -0.03752407581579765 44.60728752645396 12.503067736426996 -0.007273529357022552 0.005507648389072287 0.022111716650242225 0.006763452205976774 -0.0437984861285977 0.017016028026480647 0.001254720918375852 -0.011658911949538905 11.151209665764844 0.029637679351767088 -0.0026288940836656518 -0.022440994177599597 0.008650879041004951 -0.027929598855118976 0.0009530700534329967 -0.0020161316842211233 -0.023142965906457296 4.808382890328937 -0.01628780451333665 0.02883413304701441 0.04412849701849659 0.006363832390971754 0.0184601569945427 0.0493734679730723 0.030333554805542225 -0.02973725343421474 -5.5565684630239325 0.0008378751674335671 -0.0036688521688669337 -6.7164286322581 -0.019071787916859453 0.027676150332493297 -6.739570013521153 -0.015788190525777266 0.035597767727474854 -0.02987176138029198 0.01488898551313187 0.04106226326784961 8.04202547681539 3.5134508887983213 -19.25742689300335 0.026699945269334564 10.413789510353183 -0.0016471698104517755 -5.631660970760249 -15.652545789735827 3.1973650523512154 0.007509851287053017 0.027747062567980003 0.039757878360286616 0.00991815202115632 4.7055705361986035 -0.027548931888923312 12.44498780250189 -8.231971646827962 6.877521220013962 0.018120635613225203 46.337496370337924 -0.004746181136911439 -4.3573027993312925 -14.703352139238914 -3.8575811602644667 -0.008822444076032143 0.042777371903817 -0.026084204369647514 -0.02556996805616892 -10.76627743566003 0.04321334748399572 
-0.004631208483063969 0.014371367812136973 0.017322062913328714 0.0324651792306326 -0.03357688811911239 0.004547255752598494 -3.2153998547254754 0.9840325837376633 -0.7794059123076883 -0.8074785768309252 3.440124894574551 0.29094337638043755 -0.869236288779113 -1.9174565207613326 -2.167017660408053 -0.9790657616171466 -0.11079129406571397 -0.9508026233564896 -1.947587747003934 11.478245481671069 4.715778132051752 -0.21856292652138662 -0.5762823438039321 10.126258768904123 -1.5575069915147084 -15.397725184798 0.8560876579292928 -1.9940902018319933 1.3119696493634827 -12.56091789608128 69.66420180430502 15.077348535455222 5.074928241971543 49.55573878151587 9.60653479432499 92.75513712107085 21.661048371538474 -0.22656238891547822 -4.4786093768164505 4.533153638043381 -0.11157681686641127 -1.5842975025618624 -0.024095447606004444 -0.021271737388896046 -56.196200931325706 -0.01166095516708556 -0.02490471306630458 -56.21218212143516 -38.75649040624235 -0.031105138671098844 -0.008308471423627582 0.011364550518397203 0.027571347721943997 0.017568128162444057 -0.04901174051699233 -0.012357823091897539 -0.03412166830155274 -36.7267768843492 -0.03974411161057843 0.0037055983906553232 0.030251583754832834 0.021449711342161618 -0.0400174019222162 -0.00018102581732334713 -0.04377712333426072 -0.008594569807968532 -19.78312253969595 0.0019092527209179893 -0.016481157119000656 -0.00435313969690043 0.045106374492825736 0.036764363004088065 0.02963976088865497 0.030364494355295316 -0.021148554200531997 24.04858202440085 0.0024375646054493947 0.04431127383044374 28.81513630654727 0.049036194178878056 0.03872464498206453 28.898349017264305 -0.03133194598892021 0.03381644539339257 8.220378819577729 1.9253670767477933 11.55054472209289 -67.47927008302966 13.5056573532464 -20.714782496671596 -68.01828260485433 7.454072787254909 -100.87354684067076 -21.47514512021335 0.5960016904049079 -1.7025801150179949 -0.4676134688175795 0.11550787008201613 -8.077920990028305 0.01244781795214799 0.04892316391354262 44.52358195925027 -0.04339862030669412 0.03792342616617276 44.51908909762186 12.452013185936261 0.02711024918784865 0.005815025551186418 0.033381462303384415 -0.025724725722703866 -0.025881036563716084 0.027475319578994028 -0.043911019538268085 -0.018998869174040724 11.086383971353243 0.040244044093380955 -0.038066954045073924 0.01518867750829651 -0.04548662594127666 0.024116000146752685 -0.03363365121812572 -0.04740860640651679 -0.026596101683239587 4.778805252208249 -0.024576365425849827 0.04201650746915552 0.04406477638910483 0.007701564430186955 0.007469059330285422 0.02700136032670134 0.02611077132156903 0.012034046124208154 -5.57149079705029 0.030464152027732925 -0.022803659826124673 -6.699941707037071 0.019649551094529677 0.004584397133476476 -6.7291408769603045 0.04049459989358187 0.025610323334578772 0.008883114269940663 0.015574080508295606 -0.0022754316092956388 8.073333397385808 3.498093471137992 -19.2181458588881 -0.030341543958973212 10.384650454417333 -0.007587805591244338 -5.573308802224105 -15.66844298698284 3.1442806533929373 0.007213690083879016 0.0283513700243519 0.044728240210350684 0.027971824163936006 4.658534466283621 0.002017693242281518 12.43115757369954 -8.27619681037778 6.84582612542252 -0.029399251614328777 46.35368483913502 -0.02039976096279437 -4.289570069421528 -14.70664838282847 -3.8266561576420477 0.015478696693715984 -0.02397135309317556 0.010659982391750497 0.02367977727804459 -10.7174467051804 -0.025432022608475238 
0.008342793839168715 -0.012059062953942214 0.03750959386869448 0.04750606772517462 0.005938555178761118 0.01053896634396053 -3.160973353063111 1.0067244408450333 -0.7364313693184896 -0.7552530087183246 3.473270154220624 0.27697267186109775 -0.8820024927687742 -2.0164654779830515 -2.234520804862402 -0.973455885952504 -0.14964370838286584 -0.91696345412507 -1.918853047939955 11.467964148869147 4.624788538394383 -0.21443984051244572 -0.5757859504048326 9.960688272478103 -1.5465105783629873 -15.47950590645629 0.8341551668480192 -2.122954047089923 1.343235818440843 -12.59224800147389 69.61704376124779 15.193141278465934 5.24725418238605 47.86974976396893 9.007245393549224 94.03750619482014 22.088535525242207 -0.2259179643907928 -4.579520458340919 4.537938694473895 -0.1683953930448348 -1.5496658053831878 0.021616803366479607 -0.0077409552850054 -56.19987304440333 -0.037757206985467244 0.0008721912515238352 -56.21611341917462 -38.78093562895551 -0.028114485414723746 0.011206660658803456 -0.005577539319913554 -0.022882060790772752 -0.006312025448398902 -0.003095325570347446 -0.017245965530118867 0.013243270373719765 -36.71567071788364 0.006712571169873595 0.026694547368332707 0.00431836319519964 -0.00861271091709183 -0.03335658600066825 0.006001539911452571 -0.021021511967154075 0.0026550908212459464 -19.727441658903967 0.005315878915081716 0.02017945284179079 0.04243433561457218 -0.009383571287886925 0.017626150578411985 -0.03587590007813794 -0.018342421592996178 -0.032804279602522 24.05647521971326 0.008178587329499016 -0.04445362288433981 28.815891516024074 -0.03344904527517485 -0.013787242759119352 28.841826798209524 0.024025121152483155 0.03245907251636778 8.307976472835122 1.897796090571637 11.409034139935669 -67.70750864863099 13.887294913020366 -21.1128362555291 -66.34113812475033 7.370540794338692 -99.59530845403157 -21.169794088647862 -0.018354723119040794 -0.9781788681725225 -0.4762538036199931 0.09625103220939499 -8.084362433382847 0.025976150836816737 -0.01393507953777777 44.56298735906665 0.0309349206417348 0.049428595293082765 44.60346470362393 12.456187427919302 -0.0031390484242725626 -0.04881029417237202 0.042954530791815534 -0.026797395534787046 0.002304268887903764 0.03364948749438478 -0.0406663642855611 -0.037822941617511374 11.111099627464224 -0.01723684260847748 -0.00935798317074148 0.008336814237565576 -0.024093631850100543 0.005110207869008159 -0.00017027603867392487 -0.04917242473766802 0.010503308768390847 4.787611595656208 -0.012159334921830333 -0.004728630647360528 -0.019788832776647315 -0.023786579179919977 0.038246494236839915 -0.008010994866909944 -0.011028569813709126 0.0014260758630034653 -5.592830418561332 -0.017835182942785313 0.049880806340680685 -6.7544833035113765 -0.02228379003322862 -0.003607206580381966 -6.674295644246146 0.049849445071938926 -0.030786580808683028 0.038038260955179815 -0.019103615528701347 -0.04552685215821724 8.008741444892005 3.4981265632171414 -19.174494125446273 0.048032174637270365 10.371263791085678 -0.02062813142735508 -5.670456159761192 -15.640417909748695 3.197345541900981 -0.009793556847249965 0.041919452452526144 -0.004237029992367695 0.02678501798842247 4.712551270366028 -0.01199395107582629 12.479791357674998 -8.189187288212715 6.863399145060626 0.016339506044320766 46.339139626474264 0.04658185421587148 -4.290069438625074 -14.784730096787252 -3.792645566926518 -0.04319337913120285 -0.023028479932418633 0.015086795299013384 -0.01874450521761669 -10.775744319941053 0.009230642305189739 
-0.03696532550556563 0.04558295646078184 0.009962048971788992 -0.013472173805683392 -0.0034508023269250194 0.04087672527469281 -3.174614359615942 0.8281647225150668 -0.7597113308313753 -0.7652492800922238 3.4759812223269786 0.35336938387730843 -0.8198582533983308 -2.0462264279158933 -2.431731981638322 -0.9055368720587854 -0.14465592317615736 -0.9666762706994823 -1.9039991218737022 11.484062349683215 4.50502754276241 -0.1718026036687974 -0.5559887415383077 9.95455603539298 -1.4966056808089687 -15.43364839018467 0.8561257678419891 -2.4792421154499324 1.3940559518390963 -12.771445393397164 68.94194123423793 13.95739956841516 5.37569592632869 47.652764496211 8.391828715325925 95.23247790256997 22.72214262772027 -0.28389729638807143 -4.529806653967513 4.495704249499822 -0.13413904659209785 -1.6025095361936996 0.04341592372921257 0.017669789460706683 -56.197908483826254 -0.03775160112837465 0.001616156211750311 -56.27527034933998 -38.73053079993666 -0.027423258087434156 -0.004554468105966921 0.04689407522168339 -0.03742798086066224 -0.03322082019928887 -0.014208798084810643 0.0015855091459067963 0.015542991503989429 -36.73774999217799 -0.03711884650908077 -0.0012801069229325882 0.04419424854477117 -0.015197341115944089 -0.032892245296683414 0.022744101867721626 0.02716901957988516 0.027445427525069094 -19.740800757138988 -0.009944774882934463 -0.02574120135938771 -0.007429432453183429 -0.003201240930664936 0.004004386997920784 -0.008942612133897727 0.048329973486978185 0.0011189477688136062 24.047865154924615 0.03956245303894592 -0.01076440382694093 28.857257970362657 0.033150636971310266 -0.041249705512334596 28.856681519201782 -0.0017231423911810595 0.04496293504892411 8.593691891431638 2.037668750859985 11.401564106053826 -67.65170836680478 13.560301592259249 -21.617129923221427 -67.28888160437943 7.166262406527471 -99.14472634999017 -21.170106371702285 -0.8078056517043131 -0.36296170404554495 -0.5159773531281223 0.06432121842280916 -8.098140647725407 0.022196609553508138 0.021448537458392744 44.55039375701739 0.006104307911220311 0.012394751013140925 44.57923930861388 12.508092272423458 0.02864203279823227 -0.009339461682234752 -0.007895252015020357 -0.037951856269925 0.04005330549898059 -0.03871395083570005 -0.026982631236257226 -0.004315645998439767 11.138842673641522 0.014185158943742678 -0.019462650710368592 -0.02411403113820805 -0.01759614719187842 -0.013406973634796569 0.00785617503341291 0.022341161074595755 0.022990348455787023 4.817571389230376 -0.031248932170310037 -0.0025156357475215503 0.010329047352184803 -0.005915535095876295 -0.02624138246973092 -0.04354339654409782 -0.012476083009491726 0.034431390300291395 -5.568914262688217 -0.026949561031964258 0.03418679189019114 -6.722248028617136 -0.027893151836847378 -0.006585937729664601 -6.745736032593878 -0.001058851248041349 0.0008518052991248785 -0.02756668032811421 -0.030312051807045628 0.042757069363633264 8.047092902453404 3.5092375157616207 -19.260639262831088 0.03979630570012452 10.404258392479711 0.014061527916101085 -5.629104414039598 -15.696882796568062 3.1476820173075555 -0.03810266981673702 0.020793293098443813 -0.014780256808360993 -0.01632789907408185 4.6490769931155675 0.008824989072295137 12.424175631796675 -8.276204713248672 6.85866411616931 -0.0293612411585002 46.38886363758637 0.012437048658753171 -4.30920345078101 -14.770853107763637 -3.857215130427703 -0.03587660079753676 -0.020585472433020686 0.026978831571015504 0.006158603947115938 -10.749989529086086 -0.010409160800642464 
